<mxfile host="65bd71144e">
    <diagram id="Ry2MpyNS-tdQzP80Xroz" name="Page-1">
        <mxGraphModel dx="1117" dy="787" grid="1" gridSize="10" guides="1" tooltips="1" connect="1" arrows="1" fold="1" page="1" pageScale="1" pageWidth="850" pageHeight="1100" background="none" math="0" shadow="0">
            <root>
                <mxCell id="0"/>
                <mxCell id="1" parent="0"/>
                <mxCell id="29" value="" style="rounded=1;whiteSpace=wrap;html=1;dashed=1;" parent="1" vertex="1">
                    <mxGeometry x="13" y="150" width="150" height="490" as="geometry"/>
                </mxCell>
                <mxCell id="4" value="" style="edgeStyle=none;html=1;exitX=0;exitY=0.5;exitDx=0;exitDy=0;entryX=1;entryY=0.5;entryDx=0;entryDy=0;" parent="1" source="2" target="3" edge="1">
                    <mxGeometry relative="1" as="geometry"/>
                </mxCell>
                <mxCell id="2" value="样本" style="rounded=0;whiteSpace=wrap;html=1;" parent="1" vertex="1">
                    <mxGeometry x="718" y="430" width="120" height="60" as="geometry"/>
                </mxCell>
                <mxCell id="8" value="" style="edgeStyle=none;html=1;" parent="1" source="3" target="7" edge="1">
                    <mxGeometry relative="1" as="geometry"/>
                </mxCell>
                <mxCell id="3" value="训练集" style="rounded=0;whiteSpace=wrap;html=1;" parent="1" vertex="1">
                    <mxGeometry x="538" y="430" width="120" height="60" as="geometry"/>
                </mxCell>
                <mxCell id="5" value="测试集" style="rounded=0;whiteSpace=wrap;html=1;" parent="1" vertex="1">
                    <mxGeometry x="348" y="550" width="120" height="60" as="geometry"/>
                </mxCell>
                <mxCell id="7" value="train model" style="rounded=0;whiteSpace=wrap;html=1;" parent="1" vertex="1">
                    <mxGeometry x="348" y="430" width="120" height="60" as="geometry"/>
                </mxCell>
                <mxCell id="17" value="" style="edgeStyle=none;html=1;exitX=0;exitY=0.5;exitDx=0;exitDy=0;" parent="1" source="10" target="16" edge="1">
                    <mxGeometry relative="1" as="geometry">
                        <mxPoint x="118" y="660" as="sourcePoint"/>
                    </mxGeometry>
                </mxCell>
                <mxCell id="10" value="测试集预测概率" style="rounded=0;whiteSpace=wrap;html=1;" parent="1" vertex="1">
                    <mxGeometry x="188" y="550" width="120" height="60" as="geometry"/>
                </mxCell>
                <mxCell id="12" value="" style="endArrow=classic;html=1;exitX=0.5;exitY=1;exitDx=0;exitDy=0;entryX=0.5;entryY=0;entryDx=0;entryDy=0;" parent="1" source="7" target="5" edge="1">
                    <mxGeometry width="50" height="50" relative="1" as="geometry">
                        <mxPoint x="473" y="710" as="sourcePoint"/>
                        <mxPoint x="523" y="660" as="targetPoint"/>
                    </mxGeometry>
                </mxCell>
                <mxCell id="14" value="" style="endArrow=classic;html=1;exitX=0;exitY=0.5;exitDx=0;exitDy=0;" parent="1" source="5" target="10" edge="1">
                    <mxGeometry width="50" height="50" relative="1" as="geometry">
                        <mxPoint x="558" y="730" as="sourcePoint"/>
                        <mxPoint x="608" y="680" as="targetPoint"/>
                    </mxGeometry>
                </mxCell>
                <mxCell id="15" value="" style="endArrow=classic;html=1;exitX=0.5;exitY=1;exitDx=0;exitDy=0;entryX=1;entryY=0.5;entryDx=0;entryDy=0;" parent="1" source="2" target="5" edge="1">
                    <mxGeometry width="50" height="50" relative="1" as="geometry">
                        <mxPoint x="728" y="720" as="sourcePoint"/>
                        <mxPoint x="778" y="670" as="targetPoint"/>
                        <Array as="points">
                            <mxPoint x="778" y="580"/>
                        </Array>
                    </mxGeometry>
                </mxCell>
                <mxCell id="19" value="" style="edgeStyle=none;html=1;" parent="1" source="16" target="18" edge="1">
                    <mxGeometry relative="1" as="geometry"/>
                </mxCell>
                <mxCell id="22" value="" style="edgeStyle=none;html=1;exitX=0.5;exitY=0;exitDx=0;exitDy=0;" parent="1" source="16" target="18" edge="1">
                    <mxGeometry relative="1" as="geometry"/>
                </mxCell>
                <mxCell id="16" value="(pred_proba, true positive ratio)" style="whiteSpace=wrap;html=1;rounded=0;" parent="1" vertex="1">
                    <mxGeometry x="28" y="550" width="120" height="60" as="geometry"/>
                </mxCell>
                <mxCell id="18" value="校准器：&lt;br&gt;逻辑回归&lt;br&gt;&lt;b&gt;* 保序回归&lt;br&gt;&lt;/b&gt;..." style="whiteSpace=wrap;html=1;rounded=0;" parent="1" vertex="1">
                    <mxGeometry x="28" y="430" width="120" height="60" as="geometry"/>
                </mxCell>
                <mxCell id="20" value="" style="endArrow=classic;html=1;exitX=0.5;exitY=0;exitDx=0;exitDy=0;entryX=1;entryY=0.5;entryDx=0;entryDy=0;" parent="1" source="2" target="21" edge="1">
                    <mxGeometry width="50" height="50" relative="1" as="geometry">
                        <mxPoint x="798" y="420" as="sourcePoint"/>
                        <mxPoint x="498" y="330" as="targetPoint"/>
                        <Array as="points">
                            <mxPoint x="778" y="330"/>
                        </Array>
                    </mxGeometry>
                </mxCell>
                <mxCell id="25" value="" style="edgeStyle=none;html=1;" parent="1" source="21" target="24" edge="1">
                    <mxGeometry relative="1" as="geometry"/>
                </mxCell>
                <mxCell id="21" value="预测集" style="rounded=0;whiteSpace=wrap;html=1;" parent="1" vertex="1">
                    <mxGeometry x="348" y="300" width="120" height="60" as="geometry"/>
                </mxCell>
                <mxCell id="23" value="" style="endArrow=classic;html=1;entryX=0.5;entryY=1;entryDx=0;entryDy=0;exitX=0.5;exitY=0;exitDx=0;exitDy=0;" parent="1" source="7" target="21" edge="1">
                    <mxGeometry width="50" height="50" relative="1" as="geometry">
                        <mxPoint x="328" y="450" as="sourcePoint"/>
                        <mxPoint x="378" y="400" as="targetPoint"/>
                    </mxGeometry>
                </mxCell>
                <mxCell id="28" value="" style="edgeStyle=none;html=1;" parent="1" source="24" edge="1">
                    <mxGeometry relative="1" as="geometry">
                        <mxPoint x="88" y="240" as="targetPoint"/>
                    </mxGeometry>
                </mxCell>
                <mxCell id="24" value="预测集预测概率" style="whiteSpace=wrap;html=1;rounded=0;" parent="1" vertex="1">
                    <mxGeometry x="28" y="300" width="120" height="60" as="geometry"/>
                </mxCell>
                <mxCell id="26" value="" style="endArrow=classic;html=1;entryX=0.5;entryY=1;entryDx=0;entryDy=0;exitX=0.5;exitY=0;exitDx=0;exitDy=0;" parent="1" source="18" target="24" edge="1">
                    <mxGeometry width="50" height="50" relative="1" as="geometry">
                        <mxPoint x="78" y="430" as="sourcePoint"/>
                        <mxPoint x="128" y="380" as="targetPoint"/>
                    </mxGeometry>
                </mxCell>
                <mxCell id="31" value="校准后的概率" style="rounded=1;whiteSpace=wrap;html=1;" parent="1" vertex="1">
                    <mxGeometry x="28" y="180" width="120" height="60" as="geometry"/>
                </mxCell>
                <mxCell id="32" value="&lt;font style=&quot;font-size: 18px;&quot;&gt;训练校准器&lt;/font&gt;" style="text;html=1;align=center;verticalAlign=middle;resizable=0;points=[];autosize=1;strokeColor=none;fillColor=none;" vertex="1" parent="1">
                    <mxGeometry x="353" y="70" width="110" height="40" as="geometry"/>
                </mxCell>
                <mxCell id="33" value="校验效果" style="text;html=1;align=center;verticalAlign=middle;resizable=0;points=[];autosize=1;strokeColor=none;fillColor=none;fontSize=18;" vertex="1" parent="1">
                    <mxGeometry x="370" y="670" width="100" height="40" as="geometry"/>
                </mxCell>
                <mxCell id="34" value="" style="endArrow=classic;html=1;fontSize=18;" edge="1" parent="1">
                    <mxGeometry width="50" height="50" relative="1" as="geometry">
                        <mxPoint x="80" y="920" as="sourcePoint"/>
                        <mxPoint x="80" y="720" as="targetPoint"/>
                    </mxGeometry>
                </mxCell>
                <mxCell id="35" value="" style="endArrow=classic;html=1;fontSize=18;" edge="1" parent="1">
                    <mxGeometry width="50" height="50" relative="1" as="geometry">
                        <mxPoint x="80" y="920" as="sourcePoint"/>
                        <mxPoint x="400" y="920" as="targetPoint"/>
                    </mxGeometry>
                </mxCell>
                <mxCell id="36" value="" style="endArrow=none;html=1;fontSize=18;" edge="1" parent="1">
                    <mxGeometry width="50" height="50" relative="1" as="geometry">
                        <mxPoint x="80" y="920" as="sourcePoint"/>
                        <mxPoint x="280" y="720" as="targetPoint"/>
                    </mxGeometry>
                </mxCell>
                <mxCell id="37" value="" style="endArrow=none;dashed=1;html=1;fontSize=18;fillColor=#60a917;strokeColor=#2D7600;" edge="1" parent="1">
                    <mxGeometry width="50" height="50" relative="1" as="geometry">
                        <mxPoint x="80" y="920" as="sourcePoint"/>
                        <mxPoint x="280" y="740" as="targetPoint"/>
                        <Array as="points">
                            <mxPoint x="100" y="850"/>
                            <mxPoint x="140" y="830"/>
                            <mxPoint x="180" y="860"/>
                            <mxPoint x="170" y="820"/>
                            <mxPoint x="180" y="780"/>
                            <mxPoint x="220" y="760"/>
                            <mxPoint x="270" y="770"/>
                        </Array>
                    </mxGeometry>
                </mxCell>
                <mxCell id="38" value="" style="endArrow=none;dashed=1;html=1;dashPattern=1 3;strokeWidth=2;fontSize=18;fillColor=#e3c800;strokeColor=#B09500;" edge="1" parent="1">
                    <mxGeometry width="50" height="50" relative="1" as="geometry">
                        <mxPoint x="80" y="920" as="sourcePoint"/>
                        <mxPoint x="280" y="720" as="targetPoint"/>
                        <Array as="points">
                            <mxPoint x="140" y="880"/>
                            <mxPoint x="160" y="820"/>
                            <mxPoint x="230" y="790"/>
                        </Array>
                    </mxGeometry>
                </mxCell>
                <mxCell id="39" value="&lt;font style=&quot;font-size: 12px;&quot;&gt;评估指标：&lt;br&gt;校验好的模型在测试集上的AUC，准确率，召回率，F1等等&lt;/font&gt;" style="whiteSpace=wrap;html=1;fontSize=18;align=left;" vertex="1" parent="1">
                    <mxGeometry x="510" y="720" width="190" height="90" as="geometry"/>
                </mxCell>
                <mxCell id="42" value="&lt;div&gt;&lt;font style=&quot;font-size: 10px;&quot;&gt;完美校验曲线&lt;/font&gt;&lt;/div&gt;&lt;div&gt;&lt;font style=&quot;font-size: 10px;&quot;&gt;校验后的曲线&lt;/font&gt;&lt;/div&gt;&lt;div&gt;&lt;font style=&quot;font-size: 10px;&quot;&gt;未进行校验的曲线&lt;/font&gt;&lt;/div&gt;" style="rounded=1;whiteSpace=wrap;html=1;fontSize=12;align=center;" vertex="1" parent="1">
                    <mxGeometry x="88" y="720" width="100" height="50" as="geometry"/>
                </mxCell>
                <mxCell id="43" value="&lt;div style=&quot;text-align: left;&quot;&gt;&lt;span style=&quot;font-size: 12px; background-color: initial;&quot;&gt;x axis: proba_pred&lt;/span&gt;&lt;/div&gt;&lt;font style=&quot;font-size: 12px;&quot;&gt;&lt;div style=&quot;text-align: left;&quot;&gt;&lt;span style=&quot;background-color: initial;&quot;&gt;x axis: proba_calibration&lt;/span&gt;&lt;/div&gt;&lt;/font&gt;" style="text;html=1;align=center;verticalAlign=middle;resizable=0;points=[];autosize=1;strokeColor=none;fillColor=none;fontSize=10;" vertex="1" parent="1">
                    <mxGeometry x="135" y="922" width="150" height="40" as="geometry"/>
                </mxCell>
                <mxCell id="44" value="y axis: proba_true" style="text;html=1;align=center;verticalAlign=middle;resizable=0;points=[];autosize=1;strokeColor=none;fillColor=none;fontSize=12;rotation=270;" vertex="1" parent="1">
                    <mxGeometry y="790" width="120" height="30" as="geometry"/>
                </mxCell>
            </root>
        </mxGraphModel>
    </diagram>
</mxfile>